<svg width="60" height="60" viewBox="0 0 60 60" fill="none" xmlns="http://www.w3.org/2000/svg">
<path d="M30 60C46.5685 60 60 46.5685 60 30C60 13.4315 46.5685 0 30 0C13.4315 0 0 13.4315 0 30C0 46.5685 13.4315 60 30 60Z" fill="#19315B"/>
<path d="M19.7617 46.101C19.6958 45.9395 19.6261 45.7788 19.5647 45.6153C19.0465 44.2355 19.4707 42.663 20.5905 41.8095C21.7928 40.893 23.4003 40.8785 24.6426 41.8053C24.8951 41.994 25.0545 42.006 25.3102 41.825C25.974 41.3565 26.6615 40.9215 27.3805 40.446L27.1495 40.0968C25.9037 38.2125 24.6547 36.3313 23.4172 34.4415C23.2739 34.2223 23.158 34.1525 22.8831 34.2373C21.4167 34.6903 19.9511 34.072 19.1371 32.6878C18.3975 31.4288 18.6314 29.727 19.6856 28.7033C20.8727 27.55 22.6563 27.443 24.0254 28.4738C24.2794 28.665 24.4321 28.6373 24.6635 28.4775C25.3252 28.0213 26.002 27.5865 26.672 27.1418C26.768 27.0785 26.8585 27.0068 26.9662 26.9278L22.5019 20.1754C22.1916 20.2453 21.8859 20.3402 21.574 20.3796C20.1627 20.5553 18.811 19.838 18.1881 18.5998C17.5306 17.2925 17.7524 15.8285 18.7669 14.7655C18.8224 14.7066 18.8674 14.6395 18.9176 14.5765C19.1941 14.3936 19.4701 14.2112 19.7466 14.0283C19.936 13.9712 20.1241 13.9081 20.3149 13.8569C21.631 13.5049 23.0741 14.0078 23.8478 15.0842C24.6798 16.2421 24.7185 17.7423 23.9452 18.9114C23.8615 19.0383 23.7722 19.162 23.6898 19.282L28.213 26.123C28.9867 25.6115 29.747 25.1148 30.4955 24.6021C30.5527 24.5625 30.563 24.394 30.536 24.303C30.089 22.7722 30.6342 21.3225 31.9752 20.4997C33.2487 19.719 34.8985 19.9065 36.0032 20.9581C37.1895 22.0884 37.327 23.9336 36.3017 25.3213C36.1132 25.5768 36.122 25.7353 36.2935 25.9913C37.5455 27.8578 38.7792 29.7365 40.0187 31.6113C40.0957 31.7278 40.1732 31.845 40.266 31.9855C40.3837 31.9188 40.4755 31.8725 40.5617 31.8163C40.948 31.5635 41.3325 31.3085 41.717 31.0535C42.013 30.8578 42.4237 30.7205 42.5675 30.4453C42.6917 30.2073 42.5035 29.8118 42.4682 29.4843C42.323 28.1228 43.0677 26.8193 44.3287 26.2178C45.6877 25.5703 47.2787 25.7975 48.249 26.7773C48.3302 26.8588 48.417 26.936 48.5007 27.015L48.814 27.4888C48.8432 27.5758 48.8682 27.6648 48.9037 27.7495C49.3645 28.8413 49.2842 29.8953 48.6585 30.8978C48.4925 31.164 48.2675 31.3938 48.0695 31.6403L47.359 32.11C47.3237 32.1145 47.2862 32.112 47.254 32.125C46.0012 32.6283 44.844 32.4275 43.7827 31.627C43.5977 31.4873 43.4872 31.522 43.3245 31.6313C42.4702 32.2045 41.6102 32.7688 40.752 33.3355C40.1312 33.7458 39.8095 33.6813 39.4005 33.0625C37.9985 30.942 36.5965 28.8215 35.194 26.7003L34.9837 26.3823C34.9267 26.3903 34.892 26.3903 34.8597 26.4005C33.6602 26.768 32.5695 26.5573 31.6002 25.766C31.429 25.6265 31.3272 25.7108 31.1982 25.796C29.2647 27.0743 27.3335 28.3545 25.3962 29.627C25.2115 29.749 25.1562 29.851 25.2235 30.0825C25.4902 31.0023 25.368 31.8855 24.8814 32.711C24.7514 32.9313 24.5911 33.1343 24.4526 33.334L28.6072 39.618L31.2317 37.8828C31.2125 37.801 31.1987 37.7198 31.1747 37.6423C30.6932 36.0723 31.3025 34.5868 32.7695 33.759C34.0955 33.01 35.7757 33.317 36.833 34.5003C37.8747 35.6668 37.9545 37.4283 37.0192 38.6925C36.8807 38.8795 36.7275 39.0558 36.5815 39.2365L35.8117 39.7453C35.7775 39.7475 35.739 39.7408 35.7087 39.753C34.4525 40.2483 33.3 40.0318 32.2417 39.2328C32.09 39.1178 31.9917 39.124 31.8417 39.224C29.8932 40.519 27.9425 41.8098 25.9867 43.0943C25.8072 43.2128 25.7752 43.3098 25.8422 43.5218C26.1572 44.5168 26.017 45.4595 25.4282 46.3245C25.277 46.5463 25.088 46.7418 24.9161 46.949L24.1463 47.458C24.0899 47.4705 24.0311 47.4755 23.9786 47.4965C22.6324 48.0335 21.4291 47.8018 20.3642 46.827C20.2365 46.7098 20.1182 46.581 19.9958 46.4578L19.7609 46.1025L19.7617 46.101Z" fill="white"/>
<path d="M22.5 19.1012C23.5941 18.3778 23.8947 16.9043 23.1713 15.8102C22.4479 14.716 20.9744 14.4155 19.8803 15.1389C18.7861 15.8623 18.4856 17.3357 19.209 18.4299C19.9324 19.524 21.4058 19.8246 22.5 19.1012Z" fill="#4BBEE4"/>
<path d="M35.0198 25.2091C36.114 24.4857 36.4145 23.0123 35.6911 21.9181C34.9677 20.8239 33.4943 20.5234 32.4001 21.2468C31.306 21.9702 31.0054 23.4436 31.7288 24.5378C32.4523 25.6319 33.9257 25.9325 35.0198 25.2091Z" fill="#4BBEE4"/>
<path d="M23.2372 32.9991C24.3314 32.2757 24.632 30.8023 23.9085 29.7081C23.1851 28.614 21.7117 28.3134 20.6176 29.0368C19.5234 29.7602 19.2229 31.2337 19.9463 32.3278C20.6697 33.422 22.1431 33.7225 23.2372 32.9991Z" fill="#4BBEE4"/>
<path d="M24.0179 46.4192C25.1121 45.6958 25.4127 44.2223 24.6892 43.1282C23.9658 42.034 22.4924 41.7335 21.3983 42.4569C20.3041 43.1803 20.0036 44.6537 20.727 45.7479C21.4504 46.842 22.9238 47.1426 24.0179 46.4192Z" fill="#4BBEE4"/>
<path d="M35.6963 38.698C36.7905 37.9746 37.0911 36.5011 36.3676 35.407C35.6442 34.3128 34.1708 34.0123 33.0767 34.7357C31.9825 35.4591 31.682 36.9325 32.4054 38.0267C33.1288 39.1208 34.6022 39.4214 35.6963 38.698Z" fill="#4BBEE4"/>
<path d="M47.1661 31.1147C48.2602 30.3913 48.5608 28.9179 47.8374 27.8237C47.114 26.7296 45.6405 26.429 44.5464 27.1524C43.4522 27.8758 43.1517 29.3493 43.8751 30.4434C44.5985 31.5376 46.0719 31.8381 47.1661 31.1147Z" fill="#4BBEE4"/>
</svg>
