<svg width="61" height="60" viewBox="0 0 61 60" fill="none" xmlns="http://www.w3.org/2000/svg">
<g clip-path="url(#clip0_3658_116399)">
<path d="M30.125 60C46.6935 60 60.125 46.5685 60.125 30C60.125 13.4315 46.6935 0 30.125 0C13.5565 0 0.125 13.4315 0.125 30C0.125 46.5685 13.5565 60 30.125 60Z" fill="#19315B"/>
<path d="M11.5 28.866C11.5991 28.147 11.6762 27.4242 11.7994 26.709C13.1013 19.1507 19.0575 13.0834 26.621 11.6182C27.4458 11.4587 28.2842 11.371 29.116 11.25C29.897 11.25 30.6787 11.25 31.4597 11.25C32.181 11.3513 32.906 11.4322 33.6227 11.5592C35.6987 11.9259 37.6495 12.6479 39.4852 13.6814C39.5275 13.7056 39.5623 13.7435 39.61 13.7835C39.4178 14.1147 39.2295 14.4398 39.0255 14.7936C34.765 12.4461 30.2878 11.8276 25.5958 13.0963C22.1852 14.0187 19.251 15.7931 17.0146 18.5254C11.8833 24.7961 11.4554 31.5855 14.9846 38.8073C14.7079 38.969 14.3753 39.1632 13.9557 39.409C13.5119 38.4118 13.037 37.4548 12.6552 36.462C12.0466 34.8803 11.6943 33.2327 11.5665 31.5392C11.5582 31.4282 11.5227 31.3193 11.5 31.2097C11.5 30.4287 11.5 29.647 11.5 28.866Z" fill="white"/>
<path d="M49 31.1338C48.9025 31.8423 48.8278 32.5545 48.7045 33.2583C47.3685 40.8823 41.4578 46.9125 33.8775 48.3808C33.151 48.5215 32.4093 48.585 31.6753 48.687C31.5768 48.7008 31.4808 48.7285 31.384 48.7505H29.0403C28.332 48.65 27.6205 48.5698 26.9165 48.4458C24.8413 48.0815 22.8869 47.3723 21.0519 46.3358C21.0096 46.3115 20.9726 46.2783 20.9045 46.2275C21.1003 45.889 21.2924 45.5563 21.4836 45.2243C29.4563 49.725 38.1023 47.057 42.743 42.3303C47.6965 37.2843 49.7205 28.7523 45.4648 21.2274C45.7968 21.0323 46.1285 20.8373 46.546 20.5923C46.9898 21.591 47.4645 22.5482 47.8455 23.5416C48.4573 25.1355 48.811 26.7958 48.9343 28.5013C48.9433 28.6238 48.9773 28.7448 48.9993 28.8658V31.1338H49Z" fill="white"/>
<path d="M39.9283 17.3024C39.9268 15.6323 41.2845 14.2744 42.9563 14.2744C44.6088 14.2744 45.9698 15.6262 45.975 17.2729C45.9803 18.9627 44.615 20.3281 42.9268 20.3213C41.2793 20.3152 39.9298 18.9551 39.9283 17.3016V17.3024ZM42.9418 19.1116C43.948 19.1124 44.7678 18.2928 44.7638 17.2895C44.7593 16.3029 43.9488 15.4916 42.9615 15.4871C41.9583 15.4826 41.1393 16.3014 41.1393 17.3092C41.1393 18.292 41.9583 19.1108 42.9418 19.1116Z" fill="white"/>
<path d="M14.5249 42.6922C14.5287 41.0237 15.8926 39.672 17.5658 39.678C19.217 39.684 20.5718 41.042 20.5718 42.69C20.5718 44.3783 19.2003 45.7385 17.5106 45.7258C15.8647 45.7135 14.5212 44.3488 14.5249 42.693V42.6922ZM19.3599 42.6992C19.3599 41.7117 18.5517 40.8975 17.565 40.8892C16.561 40.8807 15.7392 41.6967 15.7354 42.7038C15.7324 43.6873 16.5474 44.5092 17.5302 44.5138C18.5365 44.5182 19.3606 43.7018 19.3599 42.6992Z" fill="white"/>
<path d="M37.0037 20.6914C37.8225 21.5102 38.6105 22.2987 39.4233 23.1107C39.2787 23.2703 39.1925 23.3572 39.1155 23.451C38.6505 24.0172 38.5515 24.647 38.819 25.326C39.0588 25.933 39.3098 26.5372 39.5698 27.136C39.8723 27.8322 40.4007 28.2375 41.1695 28.261C41.4342 28.2692 41.5258 28.3555 41.5243 28.608C41.5175 29.55 41.5175 30.492 41.5198 31.434C41.5198 31.6587 41.4298 31.729 41.202 31.7365C40.3675 31.763 39.8253 32.1992 39.532 32.975C39.3453 33.4685 39.1518 33.9607 38.9288 34.4387C38.5158 35.3217 38.5975 35.9742 39.247 36.6902C39.2795 36.7265 39.3075 36.7672 39.3565 36.8292C38.6838 37.754 37.8853 38.5447 36.9555 39.2357C36.8753 39.1692 36.7998 39.1095 36.727 39.0452C36.1133 38.5 35.4167 38.4095 34.6615 38.7587C34.2397 38.9537 33.82 39.1662 33.3778 39.3015C32.376 39.6077 31.821 40.2315 31.834 41.3662C31.4612 41.404 31.0922 41.4715 30.7225 41.4715C30.0565 41.4715 29.3895 41.4305 28.7235 41.4062C28.5065 41.3987 28.3955 41.3277 28.3855 41.07C28.353 40.2192 27.8935 39.6787 27.1032 39.387C26.6202 39.2085 26.1417 39.0157 25.676 38.7972C24.8042 38.389 24.1396 38.4775 23.4266 39.1315C23.3911 39.164 23.3503 39.192 23.227 39.2895C22.4302 38.4947 21.6333 37.7002 20.816 36.886C21.3006 36.4027 21.5993 35.9227 21.5637 35.2952C21.5433 34.93 20.5416 32.5257 20.2883 32.2627C19.9473 31.9082 19.6124 31.7817 18.8147 31.707C18.5781 31.0365 18.5622 29.2717 18.7883 28.2935C18.9803 28.276 19.1837 28.2812 19.3757 28.2367C20.0395 28.0817 20.4796 27.6705 20.7155 27.0292C20.872 26.6052 21.0035 26.1637 21.219 25.7705C21.7384 24.8232 21.6998 23.9696 20.878 23.1833C21.563 22.2466 22.3621 21.4444 23.2679 20.7844C23.5446 20.9689 23.7782 21.1669 24.0451 21.294C24.5388 21.5291 25.0407 21.4852 25.5405 21.2622C26.0797 21.0218 26.6262 20.7965 27.176 20.5818C27.919 20.2914 28.3305 19.7614 28.3917 18.9646C28.4037 18.8035 28.3727 18.6349 28.6155 18.6055C29.683 18.4754 30.7475 18.4648 31.8217 18.644C31.8363 18.8255 31.8355 18.9895 31.865 19.1483C31.9912 19.8333 32.3768 20.3058 33.0293 20.5659C33.6008 20.7942 34.1678 21.0339 34.734 21.2766C35.5878 21.6417 36.3037 21.4096 37.0052 20.6921L37.0037 20.6914ZM38.581 30.003C38.5658 25.2837 34.772 21.514 30.0557 21.5329C25.4287 21.551 21.6333 25.3805 21.6469 30.0165C21.6613 34.7305 25.474 38.479 30.2402 38.4652C34.8127 38.4525 38.5953 34.614 38.5802 30.003H38.581Z" fill="#4BBEE4"/>
<path d="M42.941 19.1113C41.9575 19.1106 41.1387 18.2918 41.1387 17.3089C41.1387 16.3011 41.9575 15.4823 42.9607 15.4868C43.9487 15.4914 44.7592 16.3019 44.763 17.2893C44.7677 18.2925 43.9472 19.1129 42.941 19.1113Z" fill="#4BBEE4"/>
<path d="M19.3599 42.6992C19.3599 43.7017 18.5365 44.519 17.5302 44.5137C16.5474 44.5092 15.7323 43.6865 15.7354 42.7037C15.7384 41.6967 16.561 40.881 17.565 40.8892C18.5524 40.8975 19.3599 41.7117 19.3599 42.6992Z" fill="#4BBEE4"/>
<path d="M32.8485 36.3665C32.8075 35.8617 32.9703 35.5582 33.394 35.2427C36.6748 32.8032 36.099 27.6697 32.378 25.9892C31.6495 25.6607 31.2383 25.9142 31.2365 26.7035C31.2333 27.9525 31.2358 29.2007 31.2358 30.4937H28.9855V30.0542C28.9855 28.942 28.989 27.8297 28.9848 26.7177C28.9815 25.9452 28.5393 25.6572 27.8385 25.9952C25.957 26.902 24.8682 28.4097 24.6913 30.4805C24.5161 32.5362 25.337 34.195 27.0175 35.3997C27.266 35.5782 27.3545 35.7485 27.3453 36.0412C27.3245 36.677 27.3385 37.3135 27.3385 37.9602C27.161 37.9067 26.9823 37.8417 26.803 37.7675C27.7768 38.2897 28.8888 38.586 30.0703 38.586C31.1223 38.586 32.1193 38.3497 33.0128 37.9302C32.961 37.9485 32.9095 37.9667 32.8578 37.9842C32.8578 37.4295 32.891 36.8955 32.8485 36.3665ZM31.516 35.5782C31.5435 36.3967 31.512 37.2177 31.5295 38.037C31.5353 38.3255 31.4368 38.4425 31.154 38.44C30.4348 38.4325 29.7148 38.4332 28.9955 38.4332C28.7495 38.4332 28.6653 38.3205 28.6693 38.072C28.6828 37.2385 28.6493 36.4042 28.6835 35.5715C28.7053 35.0485 28.5225 34.7422 28.057 34.4785C25.7183 33.1545 25.2963 29.9632 27.1793 28.05C27.301 27.9267 27.4388 27.8182 27.6508 27.6305C27.6508 28.831 27.649 29.9007 27.6508 30.9702C27.6523 31.6267 27.8668 31.8405 28.525 31.8412C29.5945 31.843 30.665 31.8445 31.7348 31.8412C32.3253 31.8395 32.5658 31.6002 32.569 31.002C32.574 29.919 32.5708 28.836 32.5708 27.6855C32.6993 27.7722 32.7893 27.8197 32.8628 27.8857C34.9343 29.737 34.5788 33.1102 32.1443 34.4827C31.6745 34.7472 31.4978 35.0617 31.5153 35.579L31.516 35.5782Z" fill="white"/>
</g>
<defs>
<clipPath id="clip0_3658_116399">
<rect width="60.25" height="60" fill="white"/>
</clipPath>
</defs>
</svg>
