<svg width="60" height="60" viewBox="0 0 60 60" fill="none" xmlns="http://www.w3.org/2000/svg">
<path d="M30 60C46.4998 60 59.8755 46.5685 59.8755 30C59.8755 13.4315 46.4998 0 30 0C13.5002 0 0.124481 13.4315 0.124481 30C0.124481 46.5685 13.5002 60 30 60Z" fill="#19315B"/>
<path d="M43.9088 48C42.9665 47.8125 42.2866 47.2262 41.6403 46.5557C40.5341 45.4077 39.3986 44.2877 38.2691 43.1625C37.7037 42.5992 37.505 41.9522 37.7388 41.1742C37.7679 41.0762 37.7308 40.9152 37.6631 40.8387C37.3551 40.493 37.0245 40.1672 36.7586 39.8925C35.835 40.264 34.9917 40.684 34.1022 40.9467C29.8337 42.2085 25.193 40.4857 22.7391 36.7605C22.5987 36.5465 22.4555 36.4642 22.1982 36.465C19.4912 36.475 16.7842 36.4715 14.0773 36.4715C12.7794 36.4715 12.3282 36.17 11.8357 34.9742V30.6082C12.1892 29.5355 12.9383 29.0617 14.0494 29.134C14.1136 29.1382 14.1799 29.1147 14.2455 29.1047V27.913C14.0758 27.913 13.9247 27.9087 13.7743 27.9137C13.2811 27.9295 12.8079 27.8215 12.4743 27.4565C12.212 27.1695 12.0452 26.7937 11.8364 26.458C11.8364 25.003 11.8364 23.5472 11.8364 22.0922C12.1949 20.8747 13.0766 20.4761 14.2469 20.5899V19.3689C14.0437 19.3689 13.857 19.3753 13.6717 19.3682C12.6874 19.3281 12.1222 18.7699 11.8357 17.8688V13.5023C11.8514 13.4851 11.8749 13.4708 11.882 13.4507C12.2491 12.4301 12.7972 12.0408 13.8862 12.0408C17.4007 12.0394 20.9152 12.0408 24.4297 12.0408C26.8402 12.0408 29.2499 12.0401 31.6603 12.0408C33.0189 12.0415 33.7245 12.75 33.726 14.1092C33.7267 15.1942 33.7275 16.2792 33.726 17.3642C33.7237 18.6217 32.9841 19.3653 31.7368 19.3696C31.6071 19.3696 31.4774 19.3696 31.3225 19.3696V20.5598C35.2661 20.7352 38.3709 22.4178 40.3115 25.907C42.2452 29.383 42.0535 32.9087 40.1171 36.4242C40.4462 36.7377 40.7841 37.0732 41.1413 37.386C41.2183 37.4532 41.3779 37.482 41.4799 37.454C42.2383 37.2457 42.8861 37.424 43.437 37.9765C44.7222 39.2655 46.0001 40.5625 47.2937 41.8435C47.8018 42.3467 48.0789 42.9607 48.2579 43.635V44.4937C47.7092 46.281 46.5545 47.459 44.7655 48.0007H43.9103L43.9088 48ZM22.8125 13.2639C19.8326 13.2639 16.8526 13.2632 13.872 13.2639C13.2348 13.2639 13.0502 13.4536 13.0502 14.0984C13.0495 15.1834 13.0488 16.2685 13.0502 17.3535C13.0509 17.9375 13.2612 18.1479 13.8477 18.1479C19.8077 18.1486 25.7681 18.1486 31.7281 18.1479C32.2977 18.1479 32.5078 17.9396 32.5093 17.3771C32.5115 16.2921 32.5108 15.2071 32.5093 14.1221C32.5093 13.4314 32.3405 13.2632 31.6447 13.2632C28.7004 13.2632 25.7562 13.2632 22.8111 13.2632L22.8125 13.2639ZM40.4186 30.994C40.4186 25.909 36.3289 21.8044 31.2655 21.8073C26.2735 21.8109 22.1796 25.9262 22.1739 30.9475C22.1682 36.0297 26.2601 40.133 31.329 40.1287C36.3304 40.125 40.4179 36.0162 40.4186 30.9935V30.994ZM26.2628 21.8152C26.2494 21.8137 26.2138 21.808 26.1787 21.808C22.0464 21.808 17.9139 21.8066 13.7815 21.808C13.2719 21.808 13.053 22.037 13.0516 22.5602C13.0488 23.6689 13.0495 24.7782 13.0516 25.8875C13.0523 26.486 13.2476 26.6885 13.8349 26.6885C16.4115 26.6905 18.9887 26.6862 21.5653 26.6942C21.7955 26.6942 21.9252 26.6362 22.0292 26.4157C22.5645 25.2842 23.2808 24.2736 24.2131 23.4427C24.8645 22.8623 25.5794 22.3541 26.2636 21.8152H26.2628ZM44.3428 46.7797C44.8255 46.7667 45.2609 46.6065 45.6179 46.258C45.9159 45.9675 46.2125 45.6755 46.499 45.374C47.2145 44.6205 47.2372 43.547 46.5132 42.8025C45.2032 41.457 43.8702 40.1337 42.541 38.806C42.2054 38.4705 41.8905 38.4775 41.5504 38.816C40.7328 39.629 39.9189 40.4465 39.1093 41.2672C38.7735 41.608 38.77 41.9245 39.1043 42.2622C40.4179 43.5885 41.7356 44.9095 43.0544 46.23C43.4057 46.5815 43.8361 46.7575 44.3428 46.7797ZM20.9744 30.388C20.8689 30.3772 20.8012 30.3642 20.7328 30.3642C18.4071 30.3635 16.0822 30.36 13.7565 30.3657C13.2633 30.3672 13.053 30.5962 13.0516 31.1007C13.0481 32.2087 13.0495 33.3165 13.0509 34.4245C13.0509 35.0515 13.2526 35.2505 13.8891 35.2505C16.44 35.2512 18.9909 35.2505 21.5417 35.2505C21.6408 35.2505 21.7399 35.2375 21.8746 35.2282C21.1989 33.673 20.891 32.087 20.9744 30.388ZM15.4992 20.562H30.0647V19.3954H15.4992V20.562ZM15.4984 27.9367V29.076C15.5362 29.0982 15.5562 29.1197 15.5761 29.1197C17.3665 29.1262 19.1569 29.1317 20.9473 29.129C21.0186 29.129 21.1369 29.0537 21.1533 28.9922C21.2445 28.6515 21.3115 28.3045 21.3921 27.9372H15.4977L15.4984 27.9367ZM39.5012 37.5085C38.9169 38.0875 38.3552 38.6427 37.8413 39.1525C38.0587 39.3965 38.3315 39.7035 38.581 39.9847C39.1534 39.4107 39.713 38.8497 40.271 38.2907C40.0008 38.016 39.7123 37.7217 39.5012 37.5077V37.5085Z" fill="white"/>
<path d="M44.3427 46.7798C43.8361 46.7575 43.4056 46.5823 43.0544 46.23C41.7356 44.9095 40.4171 43.5885 39.1043 42.2623C38.77 41.9245 38.773 41.608 39.1093 41.2673C39.9189 40.4465 40.7328 39.6298 41.5504 38.816C41.8905 38.4775 42.2054 38.471 42.541 38.806C43.8697 40.133 45.2024 41.457 46.5132 42.8025C47.2379 43.547 47.2145 44.6205 46.499 45.374C46.2125 45.676 45.9159 45.968 45.6179 46.258C45.2609 46.6065 44.8247 46.7668 44.3427 46.7798Z" fill="#4BBEE4"/>
<path d="M15.4991 20.562V19.3954H30.0647V20.562H15.4991Z" fill="#4BBEE4"/>
<path d="M15.4977 27.9367H21.3914C21.3108 28.3045 21.2445 28.6515 21.1526 28.9915C21.1362 29.0532 21.0179 29.1282 20.9466 29.1282C19.1562 29.1312 17.3658 29.1255 15.5754 29.119C15.5555 29.119 15.5355 29.0975 15.4977 29.0752V27.936V27.9367Z" fill="#4BBEE4"/>
<path d="M39.5012 37.5085C39.7115 37.7225 40.0001 38.016 40.271 38.2915C39.7135 38.8505 39.1541 39.4115 38.581 39.9855C38.331 39.7042 38.0579 39.3972 37.8413 39.1532C38.3559 38.6435 38.9169 38.0882 39.5012 37.5092V37.5085Z" fill="#4BBEE4"/>
<path d="M30.0846 15.7052C30.0846 15.4905 30.0717 15.2751 30.0874 15.0618C30.113 14.7147 30.364 14.4878 30.6954 14.4906C31.0275 14.4935 31.2769 14.7225 31.2899 15.0732C31.3056 15.4898 31.3048 15.9077 31.2899 16.3243C31.2777 16.6664 31.0168 16.9169 30.7011 16.924C30.3762 16.9319 30.1053 16.67 30.0854 16.3128C30.0739 16.111 30.0831 15.9077 30.0831 15.7052H30.0846Z" fill="#4BBEE4"/>
<path d="M28.8637 15.7095C28.8637 15.9242 28.8787 16.1396 28.86 16.3522C28.8301 16.6886 28.5535 16.9333 28.2421 16.924C27.9256 16.9147 27.6692 16.6642 27.6585 16.3207C27.6456 15.9041 27.6441 15.4862 27.6585 15.0704C27.6705 14.7325 27.9015 14.51 28.2187 14.4928C28.55 14.4749 28.8095 14.6917 28.8607 15.0303C28.8645 15.0539 28.865 15.0775 28.865 15.1018C28.865 15.3044 28.865 15.5069 28.865 15.7095H28.8622H28.8637Z" fill="#4BBEE4"/>
<path d="M25.2251 15.6859C25.2251 15.4834 25.2159 15.2801 25.2274 15.0783C25.2466 14.7362 25.4632 14.5129 25.7788 14.4928C26.0975 14.4721 26.3875 14.6632 26.4124 14.9881C26.4483 15.4612 26.4475 15.9407 26.4124 16.4138C26.3898 16.7308 26.0761 16.9463 25.7811 16.9219C25.4739 16.8962 25.2458 16.66 25.2274 16.3286C25.2152 16.1146 25.2251 15.8999 25.2251 15.6859Z" fill="#4BBEE4"/>
<path d="M20.3529 16.3035C20.0108 16.305 19.7435 16.0366 19.747 15.6959C19.7506 15.3631 20.0386 15.0818 20.365 15.0911C20.6793 15.1004 20.9494 15.3745 20.9559 15.6902C20.963 16.0273 20.6921 16.3028 20.3529 16.3042V16.3035Z" fill="#4BBEE4"/>
<path d="M16.0936 15.7038C16.0921 16.0373 15.8113 16.3079 15.4735 16.3021C15.1285 16.2964 14.8776 16.0301 14.8876 15.6802C14.8969 15.3552 15.1592 15.094 15.4792 15.0904C15.8056 15.0869 16.0943 15.3753 16.0928 15.7038H16.0936Z" fill="#4BBEE4"/>
<path d="M18.5261 15.6895C18.534 16.0215 18.2574 16.3014 17.9203 16.3028C17.5889 16.3042 17.333 16.0609 17.3188 15.731C17.3045 15.3924 17.5647 15.104 17.8975 15.0911C18.2225 15.079 18.5183 15.3609 18.5261 15.6895Z" fill="#4BBEE4"/>
<path d="M39.2027 30.9555C39.1847 35.4093 35.6482 38.927 31.2065 38.9078C26.9121 38.889 23.3685 35.282 23.3884 30.9498C23.4091 26.5575 26.9791 23.0061 31.3546 23.0269C35.6681 23.0477 39.2198 26.6348 39.2027 30.9548V30.9555ZM31.3247 37.688C34.9932 37.6868 37.986 34.662 37.9902 30.9525C37.9944 27.2903 34.9718 24.25 31.3255 24.2479C27.6363 24.2457 24.6058 27.261 24.6051 30.934C24.6044 34.6773 27.6015 37.6895 31.3247 37.688Z" fill="white"/>
<path d="M17.3188 24.2128C17.338 23.8707 17.6167 23.6302 17.9659 23.6545C18.286 23.6767 18.539 23.958 18.5254 24.275C18.5112 24.605 18.2104 24.8812 17.8868 24.8626C17.5533 24.8426 17.2988 24.552 17.318 24.2135L17.3188 24.2128Z" fill="#4BBEE4"/>
<path d="M20.9559 24.26C20.9516 24.5907 20.6608 24.8734 20.3344 24.8641C20.0051 24.8541 19.7342 24.5613 19.747 24.2285C19.7599 23.9014 20.0179 23.6538 20.3479 23.6531C20.69 23.6517 20.9601 23.9222 20.9551 24.2607L20.9559 24.26Z" fill="#4BBEE4"/>
<path d="M15.4885 23.6531C15.8256 23.6546 16.1021 23.9344 16.0936 24.2658C16.085 24.5936 15.7878 24.8763 15.4649 24.8634C15.1449 24.8505 14.8905 24.585 14.8876 24.2593C14.8848 23.9101 15.1414 23.6517 15.4885 23.6531Z" fill="#4BBEE4"/>
<path d="M17.318 32.7935C17.3223 32.457 17.6067 32.1807 17.936 32.1922C18.2503 32.203 18.5212 32.4792 18.5269 32.7935C18.5326 33.1247 18.2532 33.4052 17.9182 33.4052C17.5746 33.4052 17.3138 33.139 17.318 32.7935Z" fill="#4BBEE4"/>
<path d="M16.0936 32.8005C16.0943 33.1327 15.8128 33.4082 15.4771 33.4045C15.1456 33.401 14.8962 33.154 14.8876 32.8212C14.8784 32.4777 15.1392 32.1987 15.4749 32.1922C15.8013 32.1865 16.0929 32.4727 16.0936 32.8005Z" fill="#4BBEE4"/>
</svg>
