<svg width="147" height="31" viewBox="0 0 147 31" fill="none" xmlns="http://www.w3.org/2000/svg">
<path d="M14.0658 17.1775L10.5708 23.2491C10.8278 23.2969 11.0783 23.3745 11.3174 23.4803C11.6705 23.6402 11.9908 23.8642 12.2621 24.141L12.4207 24.3062L15.9355 18.2147C15.2145 18.0858 14.5568 17.721 14.0658 17.1775Z" fill="#A5A4A4"/>
<path d="M19.8203 3.50816C19.8256 3.14335 19.8903 2.78184 20.0119 2.43787H13.0814C13.3297 3.14567 13.3297 3.91689 13.0814 4.6247H20.0383C19.9098 4.2885 19.8362 3.93381 19.8203 3.57423V3.50816Z" fill="#A5A4A4"/>
<path d="M12.4868 5.67511C11.9781 6.26776 11.2759 6.66101 10.5048 6.78504L14.0195 12.8765C14.5282 12.2838 15.2305 11.8906 16.0016 11.7665L12.4868 5.67511Z" fill="#A5A4A4"/>
<path d="M33.0337 15.017C33.0337 14.1409 32.6857 13.3007 32.0662 12.6812C31.4467 12.0617 30.6065 11.7137 29.7304 11.7137C29.5445 11.7154 29.359 11.7309 29.1754 11.7599L25.6474 5.67511C25.1863 6.21591 24.563 6.59357 23.8702 6.75201H23.7579L27.2661 12.8236C26.7271 13.4273 26.4286 14.2078 26.427 15.017C26.4275 15.8106 26.7136 16.5775 27.233 17.1774L23.7314 23.249C23.9863 23.2968 24.2347 23.3744 24.4714 23.4803C24.8245 23.6401 25.1448 23.8642 25.4162 24.141L25.5681 24.3061L29.0829 18.2147C29.2684 18.2468 29.4563 18.2622 29.6445 18.261C30.5206 18.261 31.3608 17.9129 31.9803 17.2934C32.5998 16.6739 32.9478 15.8337 32.9478 14.9576L33.0337 15.017Z" fill="#A5A4A4"/>
<path d="M13.2664 26.46C13.2637 26.0047 13.167 25.5548 12.9823 25.1386C12.8224 24.7855 12.5984 24.4652 12.3216 24.1939C12.0503 23.9171 11.7299 23.6931 11.3768 23.5332C10.9603 23.3497 10.5107 23.253 10.0555 23.2491H9.99602C9.80546 23.2503 9.61535 23.268 9.42784 23.302L5.87341 17.1775C6.39286 16.5776 6.67898 15.8107 6.67944 15.0171C6.68258 14.2229 6.396 13.4548 5.87341 12.8567L9.38159 6.7785C9.56684 6.81277 9.75478 6.83045 9.94317 6.83136H10.0026H10.3198C11.1474 6.72769 11.9053 6.31474 12.4411 5.67541C12.9768 5.03609 13.2509 4.21773 13.2083 3.38467C13.1656 2.5516 12.8094 1.76552 12.2111 1.18427C11.6128 0.603012 10.8168 0.269622 9.98281 0.251043H9.94317C9.48817 0.25023 9.03805 0.344755 8.62182 0.528526C8.26826 0.691001 7.94619 0.914663 7.67045 1.1892C7.39591 1.46494 7.17225 1.78701 7.00977 2.14057C6.82063 2.55529 6.72371 3.00611 6.72568 3.46192V3.56763C6.72371 4.02344 6.82063 4.47425 7.00977 4.88898C7.13691 5.17115 7.30377 5.43367 7.50528 5.66857L3.96406 11.7666C3.77821 11.7379 3.59054 11.7224 3.40249 11.7203C2.52638 11.7203 1.68616 12.0684 1.06666 12.6879C0.447154 13.3074 0.0991211 14.1476 0.0991211 15.0237C0.0991211 15.8998 0.447154 16.7401 1.06666 17.3596C1.68616 17.9791 2.52638 18.3271 3.40249 18.3271C3.59133 18.3225 3.77933 18.3004 3.96406 18.261L7.47885 24.359C7.27672 24.5841 7.10563 24.8352 6.97013 25.1056C6.77957 25.5199 6.68257 25.971 6.68604 26.427V26.4864C6.68257 26.9424 6.77957 27.3935 6.97013 27.8078C7.13479 28.1581 7.35824 28.4776 7.63081 28.7525C7.90809 29.0252 8.22982 29.2486 8.58218 29.4132C8.99898 29.596 9.44843 29.6926 9.90353 29.6973H9.96299C10.4182 29.6934 10.8678 29.5967 11.2843 29.4132C11.6347 29.2485 11.9542 29.0251 12.2291 28.7525C12.5059 28.4812 12.7299 28.1609 12.8898 27.8078C13.0745 27.3916 13.1712 26.9417 13.1739 26.4864V26.427L13.2664 26.46Z" fill="white"/>
<path d="M26.4269 26.46C26.4243 26.0046 26.3275 25.5548 26.1428 25.1386C25.9781 24.7883 25.7547 24.4687 25.4821 24.1939C25.2108 23.9171 24.8904 23.693 24.5374 23.5332C24.1212 23.3484 23.6713 23.2517 23.216 23.2491H23.1235C22.9351 23.25 22.7472 23.2677 22.5619 23.3019L19.0405 17.1775C19.2544 16.9344 19.4304 16.6605 19.5625 16.3649C19.7464 15.9487 19.841 15.4985 19.84 15.0435V14.9774C19.841 14.5224 19.7464 14.0723 19.5625 13.6561C19.4385 13.3723 19.2713 13.1093 19.067 12.8765L22.5884 6.77848C22.7605 6.81052 22.9352 6.82601 23.1103 6.82473H23.1698C23.3919 6.82256 23.6132 6.79821 23.8304 6.75206C24.5977 6.55674 25.2692 6.09237 25.7229 5.44351C26.1765 4.79464 26.382 4.00445 26.3019 3.2168C26.2219 2.42915 25.8616 1.69645 25.2867 1.15211C24.7119 0.607768 23.9606 0.287996 23.1698 0.251021H23.1235C22.6684 0.248617 22.2179 0.343211 21.8022 0.528504C21.4504 0.690678 21.1304 0.914421 20.8574 1.18918C20.5829 1.46492 20.3592 1.78699 20.1967 2.14055C20.0139 2.55735 19.9173 3.0068 19.9126 3.4619V3.56761C19.9173 4.0227 20.0139 4.47216 20.1967 4.88895C20.3287 5.16847 20.4952 5.43036 20.6922 5.66855L17.1774 11.76C16.9916 11.7312 16.8039 11.7158 16.6159 11.7137C15.7398 11.7137 14.8995 12.0618 14.28 12.6813C13.6605 13.3008 13.3125 14.141 13.3125 15.0171C13.3125 15.8932 13.6605 16.7334 14.28 17.3529C14.8995 17.9724 15.7398 18.3205 16.6159 18.3205H16.6621C16.835 18.3215 17.0075 18.306 17.1774 18.2742L20.6988 24.3722C20.4772 24.5883 20.2881 24.8353 20.1373 25.1056C19.9525 25.5217 19.8558 25.9716 19.8532 26.4269V26.4864C19.8558 26.9417 19.9525 27.3916 20.1373 27.8077C20.3019 28.1581 20.5254 28.4776 20.7979 28.7525C21.0728 29.0251 21.3924 29.2485 21.7427 29.4132C22.1589 29.5979 22.6087 29.6947 23.0641 29.6973H23.1235C23.5788 29.6947 24.0287 29.5979 24.4449 29.4132C24.7952 29.2485 25.1147 29.0251 25.3896 28.7525C25.6622 28.4776 25.8856 28.1581 26.0503 27.8077C26.235 27.3916 26.3318 26.9417 26.3344 26.4864V26.4269L26.4269 26.46Z" fill="white"/>
<path d="M94.6087 21.571H92.1443C91.8671 21.572 91.5921 21.6212 91.3317 21.7164V21.571H89.6932V29.7832H91.3317V24.0354C91.3366 23.8201 91.4234 23.6149 91.5744 23.4614C91.7254 23.308 91.9292 23.2179 92.1443 23.2095H94.6087C94.8244 23.2128 95.0306 23.2991 95.1844 23.4504C95.3381 23.6017 95.4277 23.8065 95.4345 24.0221V29.7832H97.073V28.964V26.4997V24.0221C97.0677 23.3714 96.806 22.749 96.3446 22.2901C95.8832 21.8311 95.2594 21.5728 94.6087 21.571Z" fill="white"/>
<path d="M136.277 21.571C136 21.572 135.725 21.6212 135.465 21.7164V21.571H133.826V29.7832H135.438V24.0354C135.445 23.8206 135.532 23.6162 135.683 23.4631C135.833 23.31 136.036 23.2194 136.251 23.2095H138.742V21.571H136.277Z" fill="white"/>
<path d="M104.433 21.571H101.975C101.324 21.5763 100.702 21.838 100.243 22.2994C99.7841 22.7608 99.5258 23.3846 99.524 24.0354V27.2727C99.524 27.2727 99.524 27.2727 99.524 27.3123C99.5275 27.9636 99.7887 28.587 100.25 29.0463C100.712 29.5056 101.337 29.7634 101.988 29.7634H104.453C105.103 29.7565 105.724 29.4942 106.183 29.0332C106.641 28.5721 106.9 27.9493 106.904 27.2991H105.265C105.259 27.5138 105.172 27.7182 105.021 27.8713C104.87 28.0245 104.667 28.115 104.453 28.1249H101.988C101.773 28.1216 101.566 28.0354 101.413 27.884C101.259 27.7327 101.169 27.528 101.163 27.3123C101.172 27.1031 101.258 26.9046 101.404 26.7548C101.55 26.6049 101.746 26.5141 101.955 26.4997H104.453C105.106 26.4997 105.733 26.24 106.195 25.7779C106.657 25.3157 106.917 24.6889 106.917 24.0354C106.917 23.3818 106.657 22.755 106.195 22.2928C105.733 21.8307 105.106 21.571 104.453 21.571H104.433ZM105.265 24.0354C105.26 24.2506 105.174 24.4559 105.023 24.6093C104.872 24.7628 104.668 24.8528 104.453 24.8612H101.962C101.75 24.8512 101.549 24.7611 101.401 24.6091C101.252 24.457 101.167 24.2544 101.163 24.042C101.167 23.8261 101.254 23.6201 101.405 23.4655C101.556 23.311 101.759 23.2195 101.975 23.2095H104.433C104.65 23.2176 104.856 23.307 105.01 23.46C105.164 23.613 105.256 23.8184 105.265 24.0354Z" fill="white"/>
<path d="M129.756 21.571H127.292C126.645 21.5848 126.03 21.851 125.576 22.3127C125.123 22.7744 124.869 23.3951 124.867 24.0419V27.3453C124.874 27.9967 125.137 28.6191 125.6 29.0778C126.062 29.5366 126.687 29.7947 127.338 29.7964H129.803C130.452 29.7895 131.073 29.527 131.53 29.0658C131.988 28.6046 132.245 27.9817 132.247 27.3321V26.5129V24.0419C132.246 23.716 132.181 23.3935 132.055 23.0928C131.93 22.7921 131.746 22.5192 131.514 22.2896C131.283 22.0601 131.009 21.8785 130.707 21.7552C130.405 21.6319 130.082 21.5693 129.756 21.571ZM130.582 24.0419V27.3453C130.574 27.5582 130.486 27.7602 130.335 27.9109C130.184 28.0615 129.982 28.1498 129.77 28.1579H127.312C127.096 28.1531 126.89 28.0666 126.735 27.9157C126.581 27.7649 126.489 27.561 126.479 27.3453V24.0419C126.486 23.8265 126.573 23.6214 126.723 23.4672C126.874 23.313 127.077 23.221 127.292 23.2095H129.756C129.974 23.2178 130.18 23.3083 130.333 23.4629C130.487 23.6174 130.576 23.8244 130.582 24.0419Z" fill="white"/>
<path d="M123.255 24.8612V21.5578H121.617V22.3902V24.8546V27.3123C121.612 27.5269 121.525 27.7314 121.374 27.8838C121.223 28.0361 121.019 28.1248 120.804 28.1315C120.588 28.125 120.383 28.0368 120.23 27.8847C120.077 27.7326 119.987 27.528 119.978 27.3123V21.571H118.34V27.3255C118.34 27.5445 118.253 27.7546 118.098 27.9094C117.943 28.0643 117.733 28.1513 117.514 28.1513C117.295 28.1513 117.085 28.0643 116.93 27.9094C116.775 27.7546 116.688 27.5445 116.688 27.3255V24.8612V22.4035V21.571H115.05V27.3255C115.049 27.8017 115.187 28.2679 115.446 28.6674C115.706 29.0668 116.075 29.3823 116.511 29.5755C116.946 29.7686 117.428 29.8312 117.898 29.7554C118.368 29.6797 118.807 29.469 119.159 29.1489C119.607 29.5645 120.193 29.7998 120.804 29.8096C121.455 29.8061 122.078 29.5461 122.538 29.0859C122.998 28.6258 123.259 28.0027 123.262 27.3519V24.8678L123.255 24.8612Z" fill="white"/>
<path d="M110.141 21.5711V15.0106H108.502V17.4749V19.9392V22.4035V24.8678V27.3321C108.509 27.9869 108.775 28.6123 109.242 29.0716C109.709 29.5309 110.338 29.7868 110.993 29.7832H113.451V28.1448H110.993C110.777 28.14 110.571 28.0534 110.417 27.9026C110.262 27.7517 110.171 27.5478 110.161 27.3321V23.2095H113.464V21.5711H110.161H110.141Z" fill="white"/>
<path d="M77.3914 13.4712V0.231262H74.088V24.881C74.0932 26.1818 74.6132 27.4277 75.5343 28.3463C76.4553 29.2649 77.7026 29.7815 79.0034 29.7832H83.9387V26.4798H79.0034C78.5731 26.4716 78.1624 26.2983 77.8562 25.9958C77.5501 25.6933 77.3718 25.2848 77.3583 24.8546V16.6953H83.9651V13.4712H77.3583H77.3914Z" fill="white"/>
<path d="M47.8328 0.251051C46.533 0.250977 45.2857 0.763676 44.3616 1.67781C43.4376 2.59195 42.9115 3.83371 42.8976 5.13343V29.7832H46.201V16.6952H52.8077V13.4711H46.201V5.15325C46.2176 4.72237 46.3975 4.31394 46.7043 4.01088C47.011 3.70782 47.4216 3.53281 47.8526 3.52139H52.7813V0.218018H47.8328V0.251051Z" fill="white"/>
<path d="M60.967 13.4712C60.3103 13.447 59.6554 13.5555 59.0416 13.7902C58.4278 14.0248 57.8675 14.3808 57.3944 14.8369C56.9213 15.293 56.5449 15.8397 56.2879 16.4445C56.0308 17.0493 55.8983 17.6997 55.8983 18.3569C55.8983 19.014 56.0308 19.6645 56.2879 20.2693C56.5449 20.8741 56.9213 21.4208 57.3944 21.8769C57.8675 22.3329 58.4278 22.6889 59.0416 22.9236C59.6554 23.1582 60.3103 23.2667 60.967 23.2426H65.9022C66.3344 23.2541 66.7459 23.43 67.0528 23.7345C67.3597 24.0389 67.5389 24.449 67.5539 24.881C67.5387 25.3112 67.3588 25.719 67.0514 26.0203C66.744 26.3216 66.3326 26.4932 65.9022 26.4997H56.0318V29.8031H65.9022C66.5616 29.8273 67.219 29.7183 67.8353 29.4827C68.4516 29.247 69.0141 28.8896 69.4891 28.4317C69.9641 27.9738 70.3419 27.4248 70.6 26.8176C70.8581 26.2104 70.9911 25.5574 70.9911 24.8976C70.9911 24.2378 70.8581 23.5847 70.6 22.9775C70.3419 22.3703 69.9641 21.8213 69.4891 21.3634C69.0141 20.9055 68.4516 20.5481 67.8353 20.3124C67.219 20.0768 66.5616 19.9679 65.9022 19.9921H60.967C60.5289 19.9921 60.1088 19.818 59.7991 19.5083C59.4893 19.1985 59.3153 18.7784 59.3153 18.3404C59.3153 17.9023 59.4893 17.4822 59.7991 17.1725C60.1088 16.8627 60.5289 16.6887 60.967 16.6887H70.8375V13.4712H60.967Z" fill="white"/>
<path d="M146.901 24.0287V21.5577H145.262V24.0287C145.256 24.2456 145.167 24.4518 145.013 24.6053C144.86 24.7587 144.654 24.8479 144.437 24.8545H141.979V14.9973H140.34V17.4616V19.9259V22.3902V24.8545V27.3188V29.7831H141.979V27.3188V26.493H144.45C144.664 26.5044 144.866 26.5954 145.016 26.7482C145.167 26.9011 145.255 27.1046 145.262 27.3188V29.7831H146.901V27.3188C146.891 26.7079 146.655 26.1222 146.24 25.6737C146.658 25.227 146.894 24.6403 146.901 24.0287Z" fill="white"/>
</svg>
