<svg width="650" height="247" viewBox="0 0 650 247" fill="none" xmlns="http://www.w3.org/2000/svg">
<path d="M338.57 78.4344C333.735 78.5367 329.17 77.5264 325.154 74.7513C317.149 69.2138 313.44 60.2617 315.998 50.7342C318.402 41.7821 325.986 35.4389 335.219 34.5821C340.603 34.0833 345.821 34.5565 350.655 37.2038C357.254 40.8102 361.001 46.386 361.973 53.7907C362.996 61.6301 359.965 68.0244 354.376 73.2038C350.783 76.5417 346.192 78.0635 341.281 78.4344C340.386 78.4984 339.465 78.4344 338.57 78.4344ZM338.646 67.5896C339.094 67.5896 339.554 67.5896 340.002 67.5896C347.253 67.3594 351.333 60.121 350.399 54.7626C349.414 49.0844 344.363 45.0176 338.301 45.2095C333.186 45.3757 329.579 47.8567 327.623 52.5118C326.369 55.4788 326.292 58.5864 327.981 61.4639C330.346 65.4923 333.799 67.7815 338.634 67.5768L338.646 67.5896Z" fill="#19315B"/>
<path d="M411.733 45.913C408.024 47.4477 404.635 48.8544 401.131 50.3123C400.824 49.8136 400.568 49.3915 400.313 48.9695C396.092 41.6928 387.268 43.3809 383.917 48.1894C380.132 53.6246 380.503 60.1212 383.994 64.8019C386.974 68.7919 393.074 69.3674 396.476 67.8584C398.803 66.8225 400.121 64.9553 400.926 62.2825H392.038V53.7525H413.753C413.805 54.3408 413.932 54.9546 413.881 55.5557C413.728 57.2949 413.51 59.0214 413.293 60.7479C412.666 65.7994 410.198 69.8918 406.502 73.2424C403.855 75.6467 400.619 76.9895 397.128 77.6289C393.125 78.3579 389.122 78.0765 385.184 77.1046C378.124 75.3781 373.584 70.6591 370.988 64.1752C366.512 53.0107 372.446 36.3471 389.059 34.5567C393.215 34.1091 397.358 34.2498 401.297 35.8484C405.991 37.7539 409.252 41.2068 411.733 45.9258V45.913Z" fill="#19315B"/>
<path d="M476.341 36.7304V49.6342C475.676 49.1354 475.177 48.7774 474.717 48.3937C471.89 46.0022 468.629 45.1198 464.972 45.5163C460.675 45.9894 456.633 49.6854 455.713 54.2893C454.523 60.1465 457.989 65.5049 462.529 67.0012C465.765 68.0627 469.038 68.0371 472.133 66.4001C473.54 65.6584 474.857 64.7376 476.366 63.804C476.366 65.0701 476.366 66.2083 476.366 67.3337C476.366 69.917 476.366 72.5003 476.417 75.0836C476.443 76.0556 476.175 76.6055 475.19 76.9508C467.951 79.4574 460.905 79.3295 454.331 75.1604C447.745 70.9785 444.292 64.9678 443.87 57.026C443.448 49.0459 450.162 37.6001 460.751 35.2598C466.084 34.0832 471.251 34.5564 476.354 36.7432L476.341 36.7304Z" fill="#19315B"/>
<path d="M287.146 35.417H298.144V68.2071H311.367C311.329 71.4426 311.457 74.4352 311.265 77.5301H287.146V35.417Z" fill="#19315B"/>
<path d="M423.345 35.439H434.292V77.5648H423.486C423.205 72.9225 423.397 68.3058 423.358 63.7019C423.333 58.9957 423.358 54.2767 423.358 49.5704C423.358 44.9282 423.358 40.2987 423.358 35.439H423.345Z" fill="#19315B"/>
<path fill-rule="evenodd" clip-rule="evenodd" d="M637.402 128.66H627.735V120.871H649.906L649.92 120.977C649.936 121.104 649.951 121.226 649.963 121.333C649.996 121.634 650.012 121.909 649.989 122.169C649.827 123.959 649.596 125.738 649.364 127.527C648.715 132.61 646.16 136.739 642.294 140.143C639.559 142.555 636.205 143.914 632.55 144.564C628.364 145.305 624.166 145.021 620.021 144.027C612.68 142.284 607.958 137.53 605.243 130.944C600.581 119.652 606.769 102.797 624.088 100.985C628.478 100.526 632.803 100.676 636.896 102.289C641.583 104.137 644.904 107.429 647.468 111.965C643.869 113.411 640.539 114.754 637.119 116.135C636.892 115.775 636.688 115.448 636.484 115.12C634.127 111.178 630.464 109.648 626.928 109.771C623.417 109.894 620.014 111.647 618.125 114.28C613.951 120.1 614.355 127.084 618.217 132.113C619.905 134.308 622.457 135.54 625.022 136.027C627.584 136.513 630.226 136.27 632.152 135.44C634.814 134.29 636.301 132.208 637.192 129.339L637.402 128.66Z" fill="#19315B"/>
<path d="M563.064 116.537V142.933H553.357V100.768C556.069 100.768 558.703 100.73 561.338 100.807C561.747 100.807 562.207 101.306 562.527 101.676C568.333 108.531 574.126 115.399 579.919 122.253C581.365 123.967 582.823 125.668 584.664 127.305C584.664 125.156 584.69 123.008 584.702 120.859C584.702 118.596 584.702 116.345 584.702 114.081C584.702 111.882 584.702 109.695 584.702 107.495C584.702 105.321 584.702 103.134 584.702 100.845H594.575C594.626 114.913 594.626 128.878 594.562 143.035C591.749 143.035 589.178 143.086 586.608 142.984C586.084 142.958 585.483 142.434 585.099 141.973C580.175 136.155 575.277 130.31 570.379 124.466C568.103 121.755 565.814 119.043 563.524 116.332L563.077 116.511L563.064 116.537Z" fill="#19315B"/>
<path d="M310.275 99.8805C314.981 99.8038 319.393 100.814 323.37 103.41C329.061 107.132 332.297 112.375 333.256 119.102C334.33 126.622 331.734 132.799 326.542 138.067C323.293 141.354 319.265 143.145 314.712 143.784C311.809 144.193 308.906 144.116 306.003 143.758C298.176 142.774 289.122 136.546 287.46 125.957C286.181 117.81 288.854 110.866 294.698 105.239C298.151 101.914 302.589 100.418 307.371 100.021C308.343 99.9444 309.303 99.9189 310.275 99.8805ZM323.178 122.197C323.562 116.135 318.817 109.101 310.172 109.076C302.103 109.063 297.205 115.981 297.294 122.005C297.409 129.448 302.921 134.921 310.594 134.909C317.692 134.909 323.165 129.358 323.165 122.184L323.178 122.197Z" fill="#19315B"/>
<path d="M426.564 126.868V143.02C423.239 143.02 420.106 143.02 416.96 143.02C416.576 141.741 416.435 103.861 416.806 101.022C417.075 100.958 417.382 100.818 417.689 100.83C423.188 100.907 428.687 100.83 434.173 101.125C439.276 101.393 443.24 103.785 445.146 108.708C446.975 113.427 446.591 118.006 443.227 121.983C442.307 123.083 440.977 123.876 439.749 124.668C438.969 125.18 438.022 125.436 436.987 125.883C441.22 131.562 445.376 137.125 449.686 142.905C449.149 143.02 448.867 143.123 448.586 143.123C445.542 143.148 442.499 143.097 439.468 143.186C438.202 143.225 437.473 142.752 436.795 141.729C433.777 137.227 430.682 132.764 427.6 128.3C427.357 127.955 427.101 127.623 426.551 126.868H426.564ZM426.666 108.708V120.001C428.968 119.911 431.155 120.052 433.201 119.041C435.299 117.993 436.104 116.164 436.066 113.964C436.027 111.841 434.979 110.23 433.035 109.399C431.065 108.555 428.955 108.325 426.666 108.708Z" fill="#19315B"/>
<path d="M464.304 143.045H454.188C454.354 142.482 454.457 142.009 454.623 141.574C458.741 131.331 462.871 121.1 466.989 110.856C468.14 107.979 469.317 105.114 470.404 102.211C470.8 101.137 471.389 100.715 472.552 100.766C474.548 100.868 476.568 100.868 478.563 100.766C479.842 100.689 480.366 101.252 480.788 102.352C483.998 110.587 487.272 118.811 490.508 127.034C492.452 131.957 494.396 136.881 496.327 141.805C496.467 142.15 496.531 142.521 496.672 143.045H486.441C485.405 140.462 484.382 137.904 483.346 135.308H467.527C466.44 137.891 465.365 140.436 464.278 143.045H464.304ZM475.647 114.155C473.959 117.429 470.839 126.049 470.813 127.558H480.673C478.947 122.928 477.348 118.657 475.66 114.155H475.647Z" fill="#19315B"/>
<path d="M343.475 101.033C343.475 101.033 343.577 100.918 343.628 100.918C348.475 100.918 353.309 100.892 358.156 100.918C359.051 100.918 359.959 101.109 360.855 101.135C367.07 101.301 373.017 105.483 373.464 113.067C373.618 115.663 373.49 118.195 372.428 120.651C370.293 125.574 366.418 127.889 361.226 128.247C359.294 128.388 357.351 128.324 355.407 128.349C354.716 128.349 354.013 128.349 353.079 128.349V143.056H343.59C343.181 141.752 343.066 103.296 343.475 101.033ZM353.181 120.139C354.87 120.139 356.468 120.228 358.054 120.101C358.924 120.037 359.819 119.717 360.624 119.32C362.568 118.374 363.4 116.609 363.412 114.576C363.425 112.555 362.619 110.739 360.701 109.793C358.31 108.604 355.752 108.898 353.181 108.962V120.139Z" fill="#19315B"/>
<path d="M405.31 125.613H392.137V134.834H406.051V143.019H382.277V101.136C383.62 100.714 403.852 100.637 406.077 101.059V109.154C403.762 109.308 401.46 109.154 399.171 109.167C396.856 109.193 394.542 109.167 392.125 109.167V117.173C396.486 117.339 400.846 117.134 405.31 117.301V125.601V125.613Z" fill="#19315B"/>
<path d="M516.352 109.132V143.112C514.625 143.112 513.04 143.137 511.454 143.15C509.906 143.15 508.359 143.15 506.53 143.15C506.351 137.408 506.453 131.819 506.441 126.218C506.441 120.668 506.441 115.105 506.441 109.35C503.474 108.979 500.519 109.35 497.45 109.043V100.896H525.406V109.12H516.365L516.352 109.132Z" fill="#19315B"/>
<path d="M533.692 100.906H543.002C543.411 102.351 543.513 140.526 543.104 142.994H533.679V100.906H533.692Z" fill="#19315B"/>
<path d="M369.96 214.454C369.231 214.48 368.425 214.518 367.479 214.57V171.855C370.676 174.938 373.349 178.122 376.239 181.063C379.193 184.056 382.109 187.074 385.025 190.105C387.928 193.136 390.78 196.231 393.683 199.262C396.56 202.28 399.463 205.272 402.366 208.265C402.482 208.201 402.597 208.137 402.725 208.086V172.354H405.525V214.94C405.41 215.004 405.295 215.068 405.193 215.132C393.683 203.124 382.16 191.128 370.676 179.158C370.484 179.247 370.433 179.273 370.382 179.311C370.331 179.35 370.28 179.388 370.267 179.439C370.229 179.631 370.203 179.823 370.19 180.015C370.177 180.334 370.165 180.654 370.165 180.987C370.152 192.036 370.139 203.085 370.126 214.122C370.126 214.186 370.075 214.237 369.96 214.467V214.454Z" fill="#19315B"/>
<path d="M469.949 214.291C467.737 214.956 466.522 214.495 465.447 212.871C461.7 207.218 457.813 201.655 453.963 196.08C453.554 195.491 453.017 194.992 452.531 194.443C452.365 194.494 452.211 194.545 452.045 194.596C451.994 195.261 451.904 195.926 451.892 196.578C451.879 201.553 451.879 206.528 451.879 211.503C451.879 212.449 451.879 213.408 451.879 214.431H449.027C449.027 200.415 449.027 186.488 449.027 172.561C449.116 172.472 449.219 172.318 449.308 172.318C452.915 172.408 456.598 172.075 460.115 172.702C466.381 173.814 469.744 179.953 468.171 186.36C467.046 190.951 463.772 193.624 458.976 194.238C458.158 194.34 457.352 194.443 456.252 194.583C460.882 201.246 465.358 207.679 469.949 214.291ZM451.994 174.62V191.834C454.513 191.91 456.892 192.025 459.232 191.45C462.915 190.555 465.486 187.37 465.486 183.802C465.486 179.198 463.516 176.308 459.36 175.4C457.058 174.889 454.641 174.876 451.994 174.607V174.62Z" fill="#19315B"/>
<path d="M323.292 180.413C312.895 171.065 302.089 173.661 296.206 179.48C288.418 187.178 288.699 197.64 293.981 204.98C297.434 209.776 302.485 212.052 308.304 212.449C314.11 212.832 318.931 210.351 323.51 206.425C323.51 207.308 323.446 207.807 323.51 208.28C323.74 209.699 323.075 210.582 321.949 211.323C318.995 213.28 315.798 214.674 312.268 215.045C306.705 215.62 301.398 214.751 296.73 211.451C292.011 208.113 288.686 203.612 287.586 197.972C285.08 185.068 293.635 174.53 303.994 172.292C310.107 170.975 315.913 171.602 321.233 175.323C323.126 176.653 323.983 178.035 323.279 180.426L323.292 180.413Z" fill="#19315B"/>
<path d="M483.76 190.028H500.616V192.56C498.825 192.739 496.971 192.662 495.13 192.675C493.25 192.688 491.382 192.675 489.502 192.675C487.635 192.675 485.781 192.675 483.773 192.675V211.884H500.961V214.441C494.375 214.544 487.763 214.441 480.998 214.48V172.251H500.961V174.732C495.296 174.937 489.579 174.681 483.76 174.86V190.015V190.028Z" fill="#19315B"/>
<path d="M335.302 172.323H355.406V174.765H338.154C337.962 179.881 338.077 184.817 338.052 189.946C343.807 190.316 349.421 189.907 355.061 190.112V192.682H338.052C338.052 199.153 338.026 205.445 338.077 211.916H355.419V214.385H335.302V172.323Z" fill="#19315B"/>
<path d="M425.718 214.367V174.825H414.938V172.254C423.109 172.037 431.256 172.19 439.441 172.203C439.517 172.638 439.594 172.881 439.607 173.124C439.632 173.572 439.607 174.019 439.607 174.671C436.026 174.927 432.496 174.723 428.762 174.863V214.355H425.706L425.718 214.367Z" fill="#19315B"/>
<path fill-rule="evenodd" clip-rule="evenodd" d="M208.832 69.5505L208.832 69.5502L208.832 69.5497L208.841 69.5391L208.865 69.5083C212.344 65.1679 215.84 60.8057 219.355 56.4238L219.368 56.4368C217.609 54.2476 215.759 52.6058 213.556 51.3287C205.764 46.833 197.978 42.3307 190.191 37.8284L190.183 37.8234C182.4 33.323 174.617 28.8226 166.828 24.3287C153.424 16.5915 140.008 8.86726 126.591 1.14306L126.575 1.13369C126.186 0.916939 125.793 0.708763 125.389 0.494408C125.088 0.335042 124.781 0.17226 124.464 0C124.398 0.152544 124.338 0.279294 124.284 0.391864L124.284 0.392027C124.201 0.567866 124.134 0.70911 124.086 0.86004C122.171 6.69788 118.3 10.138 112.033 10.6072C111.277 10.6723 110.821 10.9851 110.599 11.7148C110.376 12.4668 110.135 13.2189 109.895 13.9709C109.715 14.535 109.534 15.0991 109.361 15.6631C102.924 36.7471 96.7083 57.8833 91.6132 79.3452C91.1209 81.4279 90.6699 83.5243 90.2052 85.6844L90.2049 85.686L90.2047 85.6868L90.2042 85.689L90.1994 85.7114L90.1943 85.735L90.1917 85.747C90.0211 86.5399 89.8487 87.3414 89.6716 88.1541C90.0978 88.3027 90.5015 88.4477 90.8926 88.5881L90.8981 88.5901L90.8993 88.5905L90.9009 88.5911L90.9011 88.5912C91.535 88.8188 92.136 89.0347 92.7469 89.2356C108.123 94.3437 122.913 100.742 136.505 109.655C140.67 112.394 144.794 115.204 148.917 118.014L148.921 118.016C150.897 119.363 152.872 120.709 154.852 122.047C155.45 122.446 156.042 122.851 156.65 123.267L156.654 123.27C156.919 123.451 157.186 123.634 157.458 123.82C167.544 115.024 177.044 105.928 185.866 96.1941C181.605 87.7762 188.511 76.9214 200.343 80.14C203.162 76.6256 205.991 73.0953 208.832 69.5505ZM103.092 7.72786C100.838 5.79929 99.2743 3.38857 98.4534 0.222064V0.235095C96.733 1.22892 95.1142 2.16923 93.5286 3.09031L93.523 3.0936C92.6365 3.60857 91.7603 4.11754 90.8824 4.62651C76.1705 13.1357 61.4456 21.6449 46.7337 30.141C44.0715 31.6784 41.4092 33.2144 38.747 34.7503C33.4213 37.823 28.0956 40.8956 22.7699 43.9798C21.7408 44.572 20.7105 45.161 19.6804 45.7497L19.68 45.75L19.6795 45.7502L19.6791 45.7505L19.6786 45.7507L19.6782 45.7509C16.1307 47.7786 12.5869 49.8041 9.11349 51.9547C3.08018 55.6816 0.148227 61.2458 0.148227 68.3085C0.116952 87.8627 0.0997516 107.417 0.0825508 126.971L0.0825507 126.971L0.0825505 126.971C0.0710834 140.007 0.0596163 153.043 0.0439793 166.079C0.0439793 167.237 0.0329932 168.397 0.0220027 169.557C0.00367366 171.491 -0.0146675 173.427 0.0179175 175.357C0.0570102 177.807 0.48703 180.179 1.59466 182.355C4.35721 182.459 71.1406 167.917 73.9031 166.614C74.0465 162.261 75.8969 158.691 79.4413 156.046C80.1304 155.529 80.0758 154.93 80.0127 154.24L80.0016 154.117C79.8817 152.717 79.7502 151.315 79.6188 149.913L79.6186 149.911L79.6184 149.909L79.6183 149.908L79.6181 149.906V149.906V149.906V149.905C79.2641 146.131 78.9097 142.351 78.7767 138.571C78.2685 124.198 79.337 109.89 80.992 95.6213C81.051 95.132 81.0718 94.6373 81.0933 94.1264V94.1263L81.0933 94.1259V94.1256C81.105 93.8477 81.1169 93.5649 81.1353 93.2757C79.445 92.7834 77.7611 92.2869 76.0816 91.7916L76.0737 91.7893L76.0713 91.7886C67.086 89.139 58.2272 86.5267 49.1835 84.7926C45.0527 92.7024 39.7622 95.6734 33.0513 93.9664C26.7573 92.3636 22.9393 85.8742 23.252 80.4664C23.5778 74.9152 28.0474 69.6507 33.5855 68.4388C38.8239 67.2921 45.8476 69.2728 48.9099 77.2868C57.6678 78.82 66.21 81.2701 74.809 83.7365C77.3923 84.4774 79.9808 85.2199 82.5817 85.9393C82.8133 84.9131 83.0354 83.9106 83.2541 82.9235L83.2544 82.922C83.6631 81.0771 84.0599 79.2862 84.4842 77.4953C88.3023 61.3631 92.8631 45.4263 97.5151 29.5155C98.9351 24.647 100.398 19.7928 101.862 14.937L101.862 14.9358L101.862 14.9344L101.863 14.933L101.863 14.9316L101.865 14.927L101.866 14.9231L101.867 14.9185L101.869 14.9117C102.377 13.2255 102.886 11.5391 103.392 9.8519L103.427 9.73988C103.65 9.01688 103.848 8.37237 103.092 7.72786ZM207.827 183.785L207.827 183.785C209.903 186.022 211.981 188.261 214.064 190.499C213.406 190.897 212.778 191.282 212.17 191.655L212.168 191.656L212.167 191.657C211.006 192.368 209.915 193.037 208.813 193.678C198.356 199.735 187.893 205.785 177.433 211.833L177.408 211.847C173.563 214.07 169.719 216.293 165.876 218.515C162.501 220.465 159.126 222.412 155.752 224.359L155.718 224.378C150.375 227.462 145.033 230.544 139.697 233.631C137.681 234.795 135.67 235.967 133.659 237.138C129.637 239.481 125.615 241.823 121.558 244.108C120.224 244.851 118.772 245.387 117.325 245.922C116.919 246.071 116.513 246.221 116.111 246.375C115.802 246.499 115.445 246.515 115.048 246.533H115.048C114.859 246.541 114.662 246.55 114.456 246.571C105.191 224.666 97.672 202.266 91.9644 179.071C97.3723 176.412 100.096 172.073 100.122 166.066C110.377 161.779 120.593 157.505 130.21 152.006C139.762 146.546 148.818 140.317 157.64 133.436V133.423C175.576 149.026 191.649 166.348 207.827 183.785L207.827 183.785ZM163.473 128.48L163.451 128.498L163.464 128.472L163.473 128.48ZM212.438 177.747C196.642 160.817 180.882 143.927 163.473 128.48C173.277 119.911 182.313 110.717 191.311 101.264C191.52 101.3 191.741 101.333 191.97 101.367C192.4 101.432 192.859 101.5 193.318 101.602C197.553 102.567 201.215 101.407 204.082 98.2535C207.144 94.8915 207.795 90.9171 206.167 86.669C205.75 85.6005 205.828 84.9359 206.557 84.0368C210.145 79.6532 213.688 75.2399 217.237 70.8193L217.238 70.8174C218.394 69.3778 219.55 67.9375 220.709 66.4972C221.269 65.7935 221.83 65.0898 222.794 64.4774C222.821 64.9036 222.853 65.331 222.885 65.7588L222.885 65.7598C222.963 66.7965 223.042 67.8359 223.042 68.8688C223.031 77.3242 223.017 85.7797 223.002 94.2351C222.98 106.916 222.958 119.596 222.95 132.277C222.95 140.262 222.964 148.247 222.978 156.229V156.238V156.246C222.988 161.558 222.997 166.869 223.002 172.178C223.002 174.94 223.002 177.716 222.051 180.374C221.465 182.055 220.735 183.658 219.458 185.261C217.115 182.76 214.778 180.255 212.442 177.752L212.44 177.749L212.438 177.747ZM6.76726 189.222C30.0926 184.14 52.9879 179.163 76.0265 174.159C76.1163 174.261 76.2281 174.384 76.3519 174.521L76.3534 174.523L76.3537 174.523C76.4987 174.684 76.6601 174.862 76.8214 175.045C78.5415 177.026 80.5222 178.641 83.1023 179.306C84.3142 179.619 84.7702 180.348 85.0309 181.469C87.8195 193.327 91.2205 205.016 95.1689 216.535C97.3412 222.878 99.7391 229.15 102.136 235.419L102.136 235.419C103.147 238.063 104.157 240.705 105.151 243.353C105.369 243.943 105.593 244.527 105.859 245.22C105.975 245.521 106.098 245.842 106.232 246.194C104.668 245.985 103.561 245.425 102.518 244.838C100.435 243.679 98.3728 242.486 96.311 241.293L96.3102 241.292C95.5218 240.836 94.7334 240.38 93.944 239.926C78.8672 231.247 63.7905 222.569 48.7268 213.877C42.7378 210.421 36.7488 206.951 30.7599 203.481C26.7672 201.168 22.7745 198.855 18.7817 196.546C17.4303 195.761 16.0712 194.987 14.7124 194.212L14.7115 194.212C12.9786 193.224 11.246 192.237 9.52981 191.229C8.95624 190.89 8.42324 190.476 7.80327 189.994L7.80317 189.994C7.49354 189.753 7.16222 189.496 6.79332 189.222H6.76726ZM97.672 159.108C116.88 151.367 135.071 142.128 151.294 128.811C141.664 121.396 131.657 115.076 121.31 109.277C110.951 103.479 99.8612 99.3739 88.368 95.5168C88.2175 97.1075 88.0629 98.6898 87.9091 100.265C87.1037 108.512 86.3163 116.575 86.2179 124.693C86.1006 134.349 86.2439 143.992 87.4949 153.661C91.8342 153.869 95.0007 155.993 97.672 159.108Z" fill="url(#paint0_linear_2632_6932)"/>
<defs>
<linearGradient id="paint0_linear_2632_6932" x1="3.25772" y1="59.2906" x2="212.404" y2="190.903" gradientUnits="userSpaceOnUse">
<stop stop-color="#73FBFD"/>
<stop offset="0.538312" stop-color="#51BCF9"/>
<stop offset="1" stop-color="#3D96F7"/>
</linearGradient>
</defs>
</svg>
