<svg width="650" height="269" viewBox="0 0 650 269" fill="none" xmlns="http://www.w3.org/2000/svg">
<path d="M442.5 196.744C429.289 197.023 416.812 194.262 405.838 186.678C383.959 171.545 373.824 147.08 380.814 121.042C387.384 96.5774 408.11 79.2423 433.343 76.9006C448.057 75.5376 462.317 76.8307 475.528 84.0653C493.562 93.9212 503.802 109.159 506.459 129.395C509.255 150.82 500.971 168.294 485.698 182.449C475.877 191.571 463.331 195.73 449.91 196.744C447.463 196.918 444.947 196.744 442.5 196.744ZM442.71 167.106C443.933 167.106 445.192 167.106 446.415 167.106C466.231 166.477 477.38 146.695 474.829 132.051C472.138 116.534 458.333 105.42 441.766 105.944C427.786 106.398 417.931 113.179 412.583 125.9C409.158 134.009 408.949 142.501 413.562 150.365C420.028 161.374 429.464 167.63 442.675 167.071L442.71 167.106Z" fill="white"/>
<path d="M607.521 82.9681V118.232C605.704 116.869 604.341 115.891 603.083 114.842C595.359 108.307 586.447 105.895 576.451 106.979C564.708 108.272 553.664 118.372 551.147 130.954C547.897 146.961 557.368 161.605 569.776 165.694C578.618 168.595 587.565 168.525 596.023 164.052C599.867 162.025 603.467 159.508 607.591 156.957C607.591 160.417 607.591 163.527 607.591 166.603C607.591 173.663 607.591 180.723 607.731 187.783C607.801 190.439 607.067 191.942 604.376 192.885C584.594 199.735 565.337 199.386 547.373 187.992C529.374 176.564 519.937 160.137 518.784 138.433C517.63 116.625 535.979 85.3447 564.918 78.9488C579.492 75.7334 593.611 77.0266 607.556 83.003L607.521 82.9681Z" fill="white"/>
<path d="M311.757 79.3633H341.814V168.975H377.952C377.847 177.817 378.197 185.995 377.673 194.453H311.757V79.3633Z" fill="white"/>
<path fill-rule="evenodd" clip-rule="evenodd" d="M226.652 75.4921C230.441 70.7644 234.248 66.0128 238.078 61.2398L238.092 61.2539C236.183 58.8779 234.174 57.0958 231.784 55.7098C223.326 50.8303 214.876 45.9438 206.425 41.0572L206.416 41.0522C197.969 36.1675 189.521 31.2828 181.067 26.4052C166.522 18.0093 151.964 9.62742 137.405 1.24558L137.405 1.24535L137.402 1.24364L137.399 1.24234L137.393 1.23888L137.379 1.23045C136.957 0.995179 136.53 0.769213 136.091 0.536538C135.765 0.363591 135.431 0.186938 135.087 0C135.016 0.164288 134.951 0.30101 134.894 0.422483L134.893 0.424255L134.893 0.42463L134.892 0.425509L134.892 0.425701C134.802 0.616449 134.729 0.769696 134.677 0.933447C132.598 7.26957 128.398 11.0034 121.595 11.5125C120.775 11.5832 120.28 11.9227 120.039 12.7147C119.797 13.5306 119.536 14.3465 119.275 15.1625L119.275 15.1635C119.079 15.7757 118.883 16.3879 118.696 17C111.709 39.8836 104.963 62.8238 99.4326 86.1176C98.8982 88.3788 98.4085 90.655 97.904 93.0004C97.7142 93.8823 97.5224 94.774 97.3253 95.6783C97.7913 95.8409 98.2324 95.9993 98.6597 96.1527L98.66 96.1528C99.3479 96.3999 100 96.6341 100.663 96.8522C117.352 102.396 133.404 109.341 148.156 119.014C152.677 121.987 157.152 125.037 161.626 128.086L161.627 128.086C163.773 129.549 165.919 131.011 168.069 132.465C168.718 132.897 169.36 133.337 170.02 133.788C170.308 133.986 170.601 134.186 170.898 134.388C181.845 124.841 192.155 114.97 201.73 104.405C197.105 95.2682 204.601 83.4869 217.443 86.9803C220.498 83.1715 223.564 79.3457 226.642 75.5041L226.652 75.4921ZM111.892 8.38755C109.445 6.29437 107.748 3.67789 106.857 0.241105V0.255248C104.99 1.33375 103.233 2.35418 101.512 3.35374L101.512 3.35415L101.51 3.35529L101.507 3.3569L101.491 3.36639L101.478 3.37369L101.466 3.3809C100.517 3.93192 99.5792 4.4767 98.6395 5.02149C82.6719 14.257 66.6902 23.4924 50.7226 32.7137C47.8324 34.3828 44.9422 36.0503 42.0521 37.7177C36.2725 41.0522 30.4929 44.3867 24.7134 47.7338C23.596 48.3768 22.4772 49.0163 21.3587 49.6555L21.3583 49.6558C17.5078 51.8566 13.6614 54.055 9.89135 56.3894C3.34308 60.4343 0.160878 66.4734 0.160878 74.139C0.126935 95.3622 0.108266 116.585 0.0895968 137.809C0.0771508 151.957 0.0647048 166.106 0.0477331 180.255C0.0477331 181.511 0.0358092 182.77 0.0238807 184.029C0.00398719 186.128 -0.0159194 188.229 0.0194468 190.325C0.0618762 192.984 0.5286 195.558 1.73077 197.92C4.72911 198.033 77.2127 182.249 80.211 180.835C80.3666 176.111 82.3749 172.236 86.2219 169.365C86.9698 168.804 86.9105 168.154 86.842 167.405L86.8359 167.338L86.83 167.272C86.6996 165.749 86.5567 164.225 86.4138 162.701C86.0296 158.604 85.6449 154.501 85.5006 150.399C84.949 134.799 86.1087 119.27 87.9049 103.783C87.969 103.252 87.9916 102.715 88.0149 102.16L88.0149 102.159C88.0276 101.858 88.0405 101.551 88.0605 101.237C86.224 100.702 84.3946 100.163 82.57 99.6248L82.5641 99.6231C72.8119 96.7474 63.197 93.9122 53.3815 92.0301C48.8981 100.615 43.156 103.84 35.8723 101.987C29.0412 100.247 24.8972 93.2039 25.2367 87.3345C25.5902 81.3096 30.4413 75.5957 36.4522 74.2804C42.1377 73.0358 49.7609 75.1856 53.0845 83.8836C62.59 85.5476 71.8613 88.2068 81.1942 90.8838C83.998 91.688 86.8074 92.4938 89.6303 93.2747C89.8815 92.1616 90.1224 91.0742 90.3596 90.0036L90.3606 89.9992L90.3606 89.9989L90.3609 89.9977C90.8043 87.9961 91.2348 86.053 91.6953 84.1099C95.8392 66.6007 100.789 49.3036 105.838 32.0349C107.38 26.749 108.968 21.4787 110.557 16.2067C111.111 14.3692 111.665 12.5315 112.217 10.6929L112.254 10.5713C112.496 9.78659 112.712 9.08707 111.892 8.38755ZM171.096 144.812C190.562 161.747 208.007 180.548 225.567 199.472C227.819 201.9 230.074 204.33 232.335 206.759C231.623 207.19 230.943 207.607 230.284 208.011L230.279 208.014L230.278 208.014C229.018 208.787 227.833 209.514 226.636 210.21C215.301 216.775 203.958 223.333 192.619 229.889L192.551 229.929L192.527 229.943L192.502 229.957C188.345 232.36 184.189 234.763 180.034 237.166C176.358 239.29 172.682 241.411 169.007 243.532L168.972 243.552C163.185 246.891 157.4 250.229 151.62 253.573C149.433 254.836 147.25 256.107 145.067 257.379C140.702 259.921 136.336 262.464 131.933 264.944C130.487 265.75 128.911 266.332 127.34 266.911L127.34 266.912L127.339 266.912L127.339 266.912C126.898 267.075 126.458 267.237 126.021 267.405C125.686 267.539 125.299 267.556 124.868 267.575C124.663 267.584 124.449 267.594 124.225 267.617C114.169 243.842 106.009 219.53 99.8141 194.355C105.684 191.47 108.639 186.76 108.668 180.24C119.798 175.587 130.887 170.948 141.324 164.98C151.691 159.054 161.521 152.294 171.096 144.826V144.812ZM177.426 139.446L177.403 139.466L177.417 139.438L177.426 139.446ZM177.426 139.446C188.067 130.146 197.875 120.168 207.641 109.907C207.867 109.946 208.107 109.982 208.355 110.02C208.822 110.09 209.32 110.164 209.819 110.275C214.415 111.321 218.389 110.063 221.501 106.64C224.824 102.991 225.532 98.6775 223.764 94.0668C223.311 92.9071 223.396 92.1858 224.188 91.2099C228.081 86.4526 231.926 81.6632 235.778 76.8658L235.78 76.8624C237.035 75.2999 238.29 73.7366 239.547 72.1732C240.156 71.4095 240.764 70.6458 241.81 69.981C241.839 70.4433 241.874 70.9069 241.909 71.3709L241.909 71.3726V71.3729V71.3732C241.994 72.4983 242.079 73.6263 242.079 74.7473C242.068 83.9273 242.052 93.1073 242.036 102.287C242.012 116.047 241.989 129.808 241.98 143.568C241.98 152.234 241.995 160.901 242.011 169.564V169.573V169.583C242.021 175.348 242.031 181.112 242.037 186.874C242.037 189.872 242.037 192.885 241.004 195.77C240.368 197.595 239.576 199.334 238.19 201.074C235.651 198.365 233.12 195.651 230.589 192.939L230.58 192.929L230.571 192.919L230.57 192.918C213.426 174.544 196.321 156.212 177.426 139.446ZM7.34464 205.373C32.6609 199.858 57.5103 194.455 82.5154 189.024C82.6132 189.135 82.7351 189.27 82.87 189.419L82.8702 189.419C83.0277 189.594 83.2029 189.788 83.3781 189.986C85.245 192.135 87.3948 193.889 90.1951 194.611C91.5104 194.95 92.0055 195.742 92.2883 196.958C95.3149 209.829 99.0063 222.515 103.292 235.017C105.65 241.902 108.252 248.71 110.854 255.514C111.951 258.383 113.047 261.251 114.125 264.124C114.362 264.765 114.605 265.398 114.894 266.149L114.894 266.151C115.02 266.478 115.154 266.826 115.299 267.207C113.602 266.981 112.4 266.373 111.268 265.736C109.008 264.478 106.77 263.183 104.532 261.889L104.532 261.888L104.527 261.886C103.673 261.391 102.818 260.897 101.962 260.404C85.5986 250.985 69.235 241.566 52.8855 232.132C46.3848 228.381 39.8841 224.615 33.3834 220.848L33.3802 220.847C29.0483 218.337 24.7165 215.827 20.3846 213.322C18.9186 212.471 17.4444 211.631 15.9704 210.791L15.967 210.789L15.9663 210.788C14.0857 209.717 12.2055 208.645 10.343 207.551C9.72041 207.184 9.14187 206.734 8.4689 206.211C8.13287 205.95 7.77329 205.67 7.37292 205.373H7.34464ZM106.009 172.688C126.856 164.287 146.6 154.259 164.208 139.805C153.756 131.758 142.894 124.898 131.664 118.604C120.421 112.311 108.385 107.856 95.9106 103.669C95.7473 105.396 95.5796 107.113 95.4126 108.823C94.5385 117.774 93.6839 126.525 93.577 135.336C93.4497 145.816 93.6053 156.282 94.963 166.776C99.6727 167.002 103.109 169.308 106.009 172.688Z" fill="white"/>
</svg>
